# xmcd
#
# Track frame offsets: 
#        150
#        15407
#        31587
#        43236
#        58152
#        72042
#        94335
#        110374
#        123067
#        133675
#        147277
#        163191
#        177266
#        189059
#        204279
#        217315
#
# Disc length: 3050 seconds
#
# Revision: 2
# Processed by: cddbd v1.5.2PL0 Copyright (c) Steve Scherf et al.
# Submitted via: ExactAudioCopy v1.1
#
DISCID=de0be810
DTITLE=Various Artist - Festa Sertaneja
DYEAR=2010
DGENRE=Sertanejo
TTITLE0=Fernando and Sorocaba - Paga Pau
TTITLE1=Luan Santana - Você Não Sabe O Que É O Amor (Ao Vivo)
TTITLE2=Michel Teló - Ei, Psiu, Beijo, Me Liga
TTITLE3=Jorge and Mateus - Pode Chorar (Ao Vivo)
TTITLE4=Maria Cecília and Rodolfo - Quem Ama Cuida (Ao Vivo)
TTITLE5=Hugo Pena and Gabriel - Parece Castigo (Ao Vivo)
TTITLE6=Luan Santana - Meteoro (Ao Vivo)
TTITLE7=João Bosco and Vinícius - Curtição (Ao Vivo)
TTITLE8=Guilherme and Santiago - E Daí? (Ao Vivo)
TTITLE9=João Neto and Frederico - Sai Pra Lá (Ao Vivo)
TTITLE10=Maria Cecília and Rodolfo - A Fila Andou (Ao Vivo)
TTITLE11=Michel Teló - Amanhã Sei Lá (Ao Vivo)
TTITLE12=Hugo Pena and Gabriel - Robin Hood Da Paixão (Ao Vivo)
TTITLE13=João Neto and Frederico - Pega Fogo Cabaré (Ao Vivo)
TTITLE14=Marcos and Belutti - Perdoa, Amor
TTITLE15=Jean and Julio - Baladeira
EXTD=
EXTT0=
EXTT1=
EXTT2=
EXTT3=
EXTT4=
EXTT5=
EXTT6=
EXTT7=
EXTT8=
EXTT9=
EXTT10=
EXTT11=
EXTT12=
EXTT13=
EXTT14=
EXTT15=
PLAYORDER=
